<?xml version="1.0" standalone="no"?>
<!DOCTYPE svg PUBLIC "-//W3C//DTD SVG 20010904//EN"
 "http://www.w3.org/TR/2001/REC-SVG-20010904/DTD/svg10.dtd">
<svg version="1.0" xmlns="http://www.w3.org/2000/svg"
 width="832.000000pt" height="832.000000pt" viewBox="0 0 832.000000 832.000000"
 preserveAspectRatio="xMidYMid meet">
<metadata>
Created by potrace 1.14, written by Peter Selinger 2001-2017
</metadata>
<g transform="translate(0.000000,832.000000) scale(0.100000,-0.100000)"
fill="#000000" stroke="none">
<path d="M4112 7638 c-60 -23 -104 -61 -134 -118 l-23 -45 -1 -2329 c-2 -2597
-8 -2379 70 -2460 119 -121 319 -84 389 73 l20 46 -1 2325 c0 1279 -3 2332 -4
2340 -32 135 -186 217 -316 168z"/>
<path d="M7753 6274 c-21 -6 -65 -24 -98 -39 -122 -55 -142 -64 -245 -110 -58
-26 -133 -60 -168 -76 -35 -16 -65 -29 -68 -29 -2 0 -34 -14 -71 -31 -94 -43
-148 -67 -298 -134 -71 -32 -155 -69 -185 -82 -30 -14 -116 -52 -190 -85 -74
-33 -163 -73 -198 -89 -35 -16 -65 -29 -67 -29 -3 0 -36 -15 -75 -34 -38 -19
-70 -33 -70 -31 0 2 -32 -12 -70 -31 -39 -19 -77 -34 -85 -34 -8 0 -15 -4 -15
-10 0 -5 -12 -13 -27 -16 -87 -22 -263 -129 -263 -161 0 -4 -7 -21 -16 -38 -8
-16 -15 -52 -15 -80 0 -107 49 -180 155 -231 38 -19 75 -34 83 -34 7 0 13 -4
13 -10 0 -5 6 -10 13 -10 7 0 31 -9 53 -19 21 -10 86 -40 144 -66 58 -26 118
-53 134 -61 16 -8 35 -14 43 -14 7 0 13 -4 13 -8 0 -4 17 -14 38 -21 35 -13
88 -36 197 -86 28 -13 113 -51 190 -85 77 -34 173 -78 213 -96 41 -19 75 -34
77 -34 2 0 37 -15 77 -34 95 -44 154 -70 258 -116 47 -21 112 -50 145 -65 33
-14 74 -32 90 -40 17 -7 55 -24 85 -38 30 -14 87 -39 125 -57 123 -56 209 -55
293 3 35 25 82 90 90 127 9 45 7 110 -5 146 -17 50 -76 115 -124 137 -32 15
-113 51 -208 94 -20 9 -63 29 -97 44 -33 16 -63 29 -66 29 -3 0 -44 18 -91 40
-47 22 -186 84 -309 139 -234 104 -301 134 -395 178 -32 14 -62 27 -68 29 -9
2 -43 17 -220 99 -33 16 -62 29 -65 30 -57 20 -57 21 0 47 30 14 80 36 110 49
30 12 58 27 61 32 3 5 10 9 15 9 17 1 117 44 307 132 43 20 84 36 92 36 7 0
18 7 25 15 7 8 19 15 26 15 8 0 22 4 32 9 37 20 138 65 147 67 6 1 43 18 83
37 40 20 74 35 75 35 1 0 25 9 52 22 83 38 143 65 290 130 77 34 164 73 192
87 159 77 198 270 78 389 -68 66 -151 86 -242 58z"/>
<path d="M342 4616 c-113 -60 -159 -146 -139 -261 7 -41 36 -151 47 -178 5
-12 16 -49 25 -82 9 -33 21 -69 25 -80 4 -11 13 -33 18 -50 30 -86 86 -235
102 -270 10 -22 32 -74 50 -115 50 -116 133 -285 142 -288 4 -2 8 -12 8 -21 0
-10 8 -29 18 -42 9 -13 22 -33 28 -44 46 -84 69 -124 85 -147 11 -14 19 -29
19 -32 0 -6 117 -185 187 -286 53 -77 135 -184 148 -192 5 -4 7 -8 3 -8 -3 0
6 -15 22 -32 15 -18 74 -87 131 -153 99 -116 310 -332 414 -425 158 -141 225
-196 380 -311 55 -41 102 -77 103 -81 2 -5 7 -8 12 -8 4 0 61 -35 126 -79 66
-43 135 -87 154 -98 19 -10 54 -31 77 -46 24 -15 47 -27 53 -27 5 0 10 -5 10
-11 0 -5 4 -8 9 -4 5 3 15 -1 23 -8 11 -12 298 -155 398 -200 95 -42 383 -153
420 -162 8 -2 60 -18 115 -35 94 -29 396 -109 440 -115 11 -2 29 -5 40 -8 24
-5 90 -17 125 -23 14 -2 41 -7 60 -10 57 -10 64 -11 205 -30 22 -3 63 -7 90
-9 28 -3 73 -7 100 -10 28 -3 109 -7 180 -11 228 -10 290 -5 341 26 58 36 92
79 110 139 35 116 -16 234 -122 286 -42 20 -70 23 -279 30 -99 3 -193 8 -210
10 -32 4 -130 15 -180 20 -43 4 -116 14 -145 20 -14 3 -38 7 -55 10 -16 3 -52
10 -80 15 -27 5 -61 12 -75 14 -14 3 -34 7 -45 10 -11 3 -49 12 -85 20 -36 8
-114 29 -175 46 -60 17 -117 33 -125 35 -8 2 -32 11 -52 19 -21 9 -40 16 -43
15 -12 -1 -296 108 -391 152 -78 35 -262 127 -337 168 -130 71 -437 266 -457
290 -3 4 -18 15 -35 26 -30 19 -166 125 -190 148 -7 6 -29 26 -50 42 -70 55
-117 98 -265 245 -173 173 -243 251 -372 419 -54 69 -101 131 -106 136 -5 6
-17 24 -28 40 -10 17 -21 32 -24 35 -12 10 -179 277 -219 350 -43 78 -196 381
-196 390 0 5 -53 132 -80 195 -15 35 -65 173 -70 195 -2 8 -17 58 -33 110 -16
52 -39 126 -50 164 -25 82 -58 127 -117 162 -61 36 -156 40 -213 10z"/>
</g>
</svg>
